# xmcd
#
# Track frame offsets: 
#        150
#        12920
#        30370
#        47380
#        65957
#        77347
#        92490
#        110642
#        126822
#        144652
#        162137
#        183192
#
# Disc length: 3174 seconds
#
# Revision: 3
# Processed by: cddbd v1.5.2PL0 Copyright (c) Steve Scherf et al.
# Submitted via: ExactAudioCopy v0.90b4
#
DISCID=8f0c640c
DTITLE=La Oreja De Van Gogh - El Viaje De Copperpot
DYEAR=2000
DGENRE=
TTITLE0=Cuídate
TTITLE1=Soledad
TTITLE2=París
TTITLE3=La Playa
TTITLE4=Pop
TTITLE5=Dicen Que Dicen
TTITLE6=Mariposa
TTITLE7=La Chica Del Gorro Azul
TTITLE8=Tu Pelo
TTITLE9=Tantas Cosas Que Contar
TTITLE10=Los Amantes Del Círculo Polar
TTITLE11=Desde El Puerto and Tic Tac (Hidden Bonus Track)
EXTD=
EXTT0=
EXTT1=
EXTT2=
EXTT3=
EXTT4=
EXTT5=
EXTT6=
EXTT7=
EXTT8=
EXTT9=
EXTT10=
EXTT11=
PLAYORDER=
